<svg width="30" height="30" viewBox="0 0 30 30" fill="none" xmlns="http://www.w3.org/2000/svg">
<path d="M27.6019 0H2.56467C1.19659 0 0.00128174 0.984373 0.00128174 2.33638V27.4292C0.00128174 28.7886 1.19659 30 2.56467 30H27.5945C28.97 30 30.0012 28.7805 30.0012 27.4292V2.33638C30.0093 0.984373 28.97 0 27.6019 0ZM9.3006 25.0064H5.00284V11.6437H9.3006V25.0064ZM7.30038 9.61204H7.26957C5.89413 9.61204 5.00351 8.58816 5.00351 7.30646C5.00351 6.00133 5.91757 5.00155 7.32382 5.00155C8.73006 5.00155 9.59055 5.99396 9.62136 7.30646C9.62069 8.58816 8.73006 9.61204 7.30038 9.61204ZM25.0077 25.0064H20.71V17.7C20.71 15.9495 20.0845 14.7535 18.5296 14.7535C17.3417 14.7535 16.6385 15.5571 16.3258 16.3399C16.2086 16.6212 16.1771 17.0042 16.1771 17.3953V25.0064H11.8794V11.6437H16.1771V13.5033C16.8026 12.6127 17.7796 11.331 20.053 11.331C22.8742 11.331 25.0084 13.1906 25.0084 17.1997L25.0077 25.0064Z" fill="#133072"/>
</svg>
