<svg width="200" height="55" viewBox="0 0 200 55" fill="none" xmlns="http://www.w3.org/2000/svg">
<path d="M113.745 45.329C113.557 45.149 113.346 44.9938 113.103 44.87C112.696 44.6637 112.235 44.5597 111.724 44.5597C111.056 44.5597 110.461 44.7214 109.945 45.0467C109.428 45.3719 109.021 45.8144 108.721 46.3757C108.42 46.937 108.27 47.5709 108.27 48.2808C108.27 48.9907 108.42 49.6098 108.721 50.1711C109.021 50.7324 109.432 51.1748 109.953 51.5001C110.475 51.8253 111.065 51.9871 111.724 51.9871C112.235 51.9871 112.698 51.8781 113.112 51.6619C113.359 51.5314 113.574 51.3697 113.762 51.1831V51.8385H115.679V41.1654H113.747V45.329H113.745ZM113.635 49.2763C113.483 49.5669 113.27 49.793 113.001 49.9548C112.731 50.1166 112.414 50.1992 112.049 50.1992C111.704 50.1992 111.394 50.1183 111.12 49.9548C110.844 49.793 110.63 49.5669 110.478 49.2763C110.326 48.9857 110.249 48.649 110.249 48.2643C110.249 47.8796 110.325 47.561 110.478 47.2754C110.63 46.9898 110.843 46.7636 111.113 46.5969C111.384 46.4301 111.701 46.3459 112.065 46.3459C112.43 46.3459 112.732 46.4268 113.003 46.5903C113.273 46.7521 113.485 46.9799 113.636 47.2688C113.788 47.5594 113.866 47.8912 113.866 48.2659C113.866 48.6407 113.79 48.9874 113.636 49.278L113.635 49.2763Z" fill="#F90052"/>
<path d="M118.364 41.342C118.049 41.342 117.788 41.451 117.582 41.6673C117.376 41.8835 117.272 42.1444 117.272 42.4498C117.272 42.7552 117.376 43.0276 117.582 43.2389C117.788 43.4502 118.049 43.5559 118.364 43.5559C118.68 43.5559 118.952 43.4502 119.153 43.2389C119.354 43.0276 119.455 42.7635 119.455 42.4498C119.455 42.1361 119.354 41.8835 119.153 41.6673C118.952 41.451 118.688 41.342 118.364 41.342Z" fill="#F90052"/>
<path d="M119.338 44.7066H117.391V51.8369H119.338V44.7066Z" fill="#F90052"/>
<path d="M125.978 45.3174C125.798 45.1424 125.591 44.9922 125.351 44.87C124.944 44.6637 124.473 44.5597 123.942 44.5597C123.302 44.5597 122.727 44.7148 122.216 45.0252C121.704 45.3356 121.303 45.7566 121.013 46.2882C120.722 46.8198 120.577 47.4207 120.577 48.0893C120.577 48.7579 120.722 49.3638 121.013 49.9053C121.303 50.4468 121.704 50.8727 122.216 51.1831C122.727 51.4935 123.303 51.6487 123.942 51.6487C124.463 51.6487 124.929 51.548 125.336 51.3465C125.576 51.2293 125.782 51.0791 125.964 50.9024V51.5017C125.964 52.0432 125.789 52.4659 125.44 52.7713C125.091 53.0767 124.617 53.2286 124.016 53.2286C123.534 53.2286 123.124 53.1427 122.784 52.971C122.444 52.7993 122.137 52.5501 121.861 52.2248L120.637 53.4498C120.982 53.9418 121.444 54.3231 122.024 54.5939C122.605 54.8646 123.274 55 124.031 55C124.789 55 125.457 54.8531 126.038 54.5576C126.619 54.262 127.072 53.851 127.402 53.3243C127.733 52.7977 127.898 52.1802 127.898 51.472V44.7099H125.98V45.3191L125.978 45.3174ZM125.86 49.027C125.713 49.2978 125.508 49.5091 125.247 49.6626C124.987 49.8145 124.68 49.8921 124.325 49.8921C123.97 49.8921 123.661 49.8128 123.396 49.656C123.13 49.4992 122.924 49.2846 122.777 49.0138C122.63 48.7431 122.556 48.4409 122.556 48.1058C122.556 47.7707 122.63 47.4537 122.777 47.1829C122.924 46.9122 123.132 46.7009 123.396 46.549C123.661 46.3971 123.972 46.3195 124.325 46.3195C124.678 46.3195 124.987 46.3955 125.247 46.549C125.508 46.7009 125.713 46.9106 125.86 47.1763C126.006 47.4421 126.081 47.7525 126.081 48.1058C126.081 48.4591 126.006 48.7579 125.86 49.0287V49.027Z" fill="#F90052"/>
<path d="M131.541 44.7066H129.594V51.8369H131.541V44.7066Z" fill="#F90052"/>
<path d="M130.568 41.342C130.252 41.342 129.992 41.451 129.785 41.6673C129.579 41.8835 129.475 42.1444 129.475 42.4498C129.475 42.7552 129.579 43.0276 129.785 43.2389C129.992 43.4502 130.252 43.5559 130.568 43.5559C130.883 43.5559 131.155 43.4502 131.356 43.2389C131.558 43.0276 131.658 42.7635 131.658 42.4498C131.658 42.1361 131.558 41.8835 131.356 41.6673C131.155 41.451 130.891 41.342 130.568 41.342Z" fill="#F90052"/>
<path d="M136.234 41.7399H134.3V44.7066H132.634V46.4054H134.3V51.8385H136.234V46.4054H137.901V44.7066H136.234V41.7399Z" fill="#F90052"/>
<path d="M143.863 45.3934C143.667 45.1837 143.438 45.0071 143.17 44.87C142.766 44.6637 142.309 44.5597 141.797 44.5597C141.149 44.5597 140.563 44.7214 140.041 45.0467C139.52 45.3719 139.112 45.8144 138.817 46.3757C138.522 46.937 138.375 47.5709 138.375 48.2808C138.375 48.9907 138.522 49.6098 138.817 50.1711C139.112 50.7324 139.52 51.1748 140.041 51.5001C140.563 51.8253 141.149 51.9871 141.797 51.9871C142.309 51.9871 142.766 51.8814 143.17 51.6701C143.439 51.5298 143.667 51.3515 143.863 51.1435V51.8402H145.781V44.7099H143.863V45.395V45.3934ZM143.464 49.661C143.129 50.0209 142.692 50.1992 142.15 50.1992C141.796 50.1992 141.484 50.1183 141.213 49.9548C140.942 49.793 140.731 49.5669 140.578 49.2763C140.426 48.9857 140.348 48.649 140.348 48.2643C140.348 47.8796 140.424 47.5577 140.578 47.2671C140.73 46.9766 140.942 46.7504 141.213 46.5886C141.484 46.4268 141.796 46.3443 142.15 46.3443C142.505 46.3443 142.832 46.4252 143.103 46.5886C143.373 46.7504 143.584 46.9782 143.736 47.2671C143.888 47.5577 143.966 47.8895 143.966 48.2643C143.966 48.8355 143.799 49.3011 143.464 49.6593V49.661Z" fill="#F90052"/>
<path d="M149.426 41.1637H147.494V51.8369H149.426V41.1637Z" fill="#F90052"/>
<path d="M153.588 52.0003C153.185 52.0003 152.789 51.9458 152.4 51.8385C152.01 51.7295 151.654 51.581 151.33 51.3878C151.005 51.1963 150.725 50.9619 150.489 50.6862L151.639 49.5206C151.885 49.7963 152.17 50.0027 152.496 50.1414C152.821 50.2784 153.179 50.3477 153.573 50.3477C153.888 50.3477 154.126 50.3032 154.289 50.214C154.451 50.1249 154.534 49.9928 154.534 49.8161C154.534 49.6197 154.448 49.4662 154.274 49.3588C154.103 49.2499 153.878 49.1591 153.603 49.0864C153.327 49.0122 153.04 48.9296 152.74 48.8355C152.439 48.7414 152.152 48.6192 151.877 48.4657C151.601 48.3138 151.377 48.1009 151.205 47.8301C151.033 47.5594 150.948 47.2077 150.948 46.7752C150.948 46.3426 151.058 45.9283 151.279 45.5948C151.5 45.2596 151.817 44.9988 152.231 44.8122C152.644 44.6257 153.132 44.5316 153.692 44.5316C154.283 44.5316 154.816 44.6356 155.293 44.842C155.77 45.0483 156.166 45.3587 156.481 45.7714L155.316 46.937C155.1 46.6712 154.855 46.4797 154.585 46.3608C154.314 46.2419 154.022 46.1842 153.707 46.1842C153.421 46.1842 153.202 46.2287 153.05 46.3162C152.898 46.4054 152.821 46.5275 152.821 46.686C152.821 46.8627 152.906 47.0014 153.078 47.0988C153.25 47.1978 153.474 47.2837 153.75 47.3579C154.025 47.4322 154.312 47.5148 154.613 47.6089C154.913 47.703 155.199 47.8334 155.469 48.0001C155.74 48.1669 155.961 48.3898 156.133 48.6638C156.304 48.9395 156.39 49.2945 156.39 49.727C156.39 50.4253 156.139 50.98 155.638 51.3878C155.136 51.7956 154.453 52.0003 153.586 52.0003H153.588Z" fill="#050831"/>
<path d="M161.055 51.9854C160.327 51.9854 159.672 51.8237 159.093 51.4984C158.512 51.1732 158.055 50.7308 157.72 50.1694C157.385 49.6081 157.218 48.9791 157.218 48.2792C157.218 47.5792 157.385 46.9353 157.72 46.374C158.055 45.8127 158.514 45.3686 159.1 45.0384C159.685 44.7082 160.337 44.5431 161.055 44.5431C161.616 44.5431 162.133 44.6472 162.605 44.8535C163.077 45.0599 163.484 45.3554 163.829 45.7401L162.59 46.9947C162.403 46.7884 162.179 46.6315 161.918 46.5226C161.657 46.4136 161.37 46.3608 161.055 46.3608C160.7 46.3608 160.384 46.4417 160.103 46.6051C159.822 46.7669 159.601 46.9898 159.44 47.2688C159.278 47.5495 159.195 47.8813 159.195 48.2659C159.195 48.6506 159.276 48.9725 159.44 49.2631C159.601 49.5537 159.824 49.7798 160.103 49.9416C160.384 50.1034 160.7 50.186 161.055 50.186C161.38 50.186 161.672 50.1298 161.933 50.0159C162.194 49.9036 162.418 49.7386 162.605 49.5206L163.859 50.7753C163.494 51.1682 163.077 51.4687 162.605 51.6767C162.133 51.8831 161.616 51.9871 161.055 51.9871V51.9854Z" fill="#050831"/>
<path d="M171.324 45.8886C171.088 45.4759 170.762 45.1507 170.342 44.9146C169.925 44.6785 169.445 44.5597 168.904 44.5597C168.362 44.5597 167.882 44.6769 167.465 44.9146C167.245 45.0384 167.052 45.1903 166.882 45.3653V41.1654H164.95V51.8385H166.882V47.7492C166.882 47.4636 166.943 47.2127 167.067 46.9964C167.191 46.7801 167.359 46.6134 167.575 46.4945C167.791 46.3773 168.037 46.3179 168.313 46.3179C168.735 46.3179 169.08 46.4499 169.346 46.7174C169.611 46.9832 169.745 47.3282 169.745 47.7509V51.8402H171.678V47.3233C171.678 46.7818 171.56 46.3047 171.323 45.8919L171.324 45.8886Z" fill="#050831"/>
<path d="M176.593 51.9854C175.876 51.9854 175.229 51.8204 174.653 51.4902C174.077 51.16 173.62 50.7126 173.28 50.1463C172.94 49.5801 172.772 48.9478 172.772 48.2494C172.772 47.5511 172.938 46.9238 173.273 46.3674C173.608 45.811 174.065 45.3686 174.646 45.0384C175.227 44.7082 175.871 44.5431 176.579 44.5431C177.287 44.5431 177.958 44.7082 178.534 45.0384C179.11 45.3686 179.564 45.811 179.899 46.3674C180.234 46.9238 180.4 47.5511 180.4 48.2494C180.4 48.9478 180.234 49.5801 179.899 50.1463C179.564 50.7126 179.11 51.16 178.534 51.4902C177.958 51.8204 177.311 51.9854 176.593 51.9854ZM176.579 50.1843C176.942 50.1843 177.265 50.1034 177.546 49.94C177.826 49.7782 178.042 49.552 178.194 49.2614C178.346 48.9709 178.424 48.6391 178.424 48.2643C178.424 47.8895 178.344 47.561 178.188 47.2754C178.029 46.9898 177.813 46.7669 177.539 46.6035C177.263 46.4417 176.943 46.3591 176.58 46.3591C176.217 46.3591 175.91 46.44 175.636 46.6035C175.361 46.7653 175.145 46.9898 174.988 47.2754C174.831 47.561 174.752 47.8912 174.752 48.2643C174.752 48.6374 174.831 48.9709 174.988 49.2614C175.145 49.552 175.361 49.7782 175.636 49.94C175.912 50.1018 176.227 50.1843 176.58 50.1843H176.579Z" fill="#050831"/>
<path d="M184.99 51.9854C184.272 51.9854 183.625 51.8204 183.049 51.4902C182.473 51.16 182.016 50.7126 181.676 50.1463C181.336 49.5801 181.168 48.9478 181.168 48.2494C181.168 47.5511 181.335 46.9238 181.67 46.3674C182.005 45.811 182.462 45.3686 183.042 45.0384C183.623 44.7082 184.267 44.5431 184.975 44.5431C185.683 44.5431 186.354 44.7082 186.93 45.0384C187.506 45.3686 187.96 45.811 188.295 46.3674C188.63 46.9238 188.797 47.5511 188.797 48.2494C188.797 48.9478 188.63 49.5801 188.295 50.1463C187.96 50.7126 187.506 51.16 186.93 51.4902C186.354 51.8204 185.708 51.9854 184.99 51.9854ZM184.975 50.1843C185.338 50.1843 185.661 50.1034 185.942 49.94C186.222 49.7782 186.439 49.552 186.59 49.2614C186.742 48.9709 186.82 48.6391 186.82 48.2643C186.82 47.8895 186.741 47.561 186.584 47.2754C186.425 46.9898 186.209 46.7669 185.935 46.6035C185.66 46.4417 185.34 46.3591 184.977 46.3591C184.613 46.3591 184.307 46.44 184.033 46.6035C183.757 46.7653 183.541 46.9898 183.384 47.2754C183.227 47.561 183.148 47.8912 183.148 48.2643C183.148 48.6374 183.227 48.9709 183.384 49.2614C183.541 49.552 183.757 49.7782 184.033 49.94C184.308 50.1018 184.623 50.1843 184.977 50.1843H184.975Z" fill="#050831"/>
<path d="M190.036 51.8385V41.1654H191.968V51.8385H190.036Z" fill="#050831"/>
<path d="M197.843 4.93787C197.79 5.04517 197.681 5.11121 197.563 5.11121C197.464 5.11121 197.371 5.06499 197.312 4.98574L196.564 3.99355H196.299V4.79589C196.299 4.96923 196.158 5.10956 195.985 5.10956C195.812 5.10956 195.672 4.96923 195.672 4.79589V2.00255C195.672 1.82921 195.812 1.68888 195.985 1.68888H196.789C197.426 1.68888 197.962 2.19571 197.967 2.83461C197.97 3.29521 197.7 3.71289 197.279 3.89779L197.815 4.60933C197.886 4.70509 197.899 4.83221 197.845 4.93952L197.843 4.93787ZM197.337 2.84121C197.337 2.55065 197.102 2.31622 196.812 2.31622H196.299V3.3662H196.812C197.102 3.3662 197.337 3.13177 197.337 2.84121Z" fill="#050831"/>
<path d="M30.8506 17.2834V26.8454C30.8506 27.6923 30.5305 28.5095 29.9529 29.1303C26.7564 32.5675 22.2745 34.5205 17.5813 34.5205H16.8932C7.56289 34.5205 0 26.9527 0 17.6185V16.9482C0 7.61399 7.56454 0.0478763 16.8948 0.0478763H17.5829C20.8966 0.0511781 24.1359 1.02687 26.9 2.85442C27.7482 3.42894 28.2862 4.36335 28.3588 5.38691C28.4297 6.41048 28.0287 7.40928 27.268 8.0977C26.1178 9.13117 24.4148 9.25499 23.1276 8.39817C21.4758 7.32838 19.5516 6.75717 17.5829 6.75552H16.8948C11.266 6.75552 6.70479 11.3203 6.70479 16.9499V17.6201C6.70479 23.2497 11.2676 27.8145 16.8948 27.8145H17.5829C19.9873 27.8261 22.3141 26.9758 24.1475 25.419V20.6364H20.6523C18.8008 20.6364 17.3008 19.1357 17.3008 17.2834C17.3008 15.431 18.8008 13.9304 20.6523 13.9304H27.499C29.3506 13.9304 30.8506 15.431 30.8506 17.2834Z" fill="#050831"/>
<path d="M90.3372 3.39757V31.1708C90.3372 33.0231 88.8372 34.5238 86.9856 34.5238H85.2975C84.0318 34.5238 82.8733 33.8106 82.304 32.6797L72.9804 14.1582V31.1724C72.9804 33.0248 71.4803 34.5254 69.6288 34.5254C67.7773 34.5254 66.2772 33.0248 66.2772 31.1724V3.35299C66.2772 1.50068 67.7773 0 69.6288 0H71.2938C72.5595 0 73.718 0.713192 74.2873 1.84406L83.6341 20.4118V3.39757C83.6341 1.54525 85.1341 0.0445745 86.9856 0.0445745C88.8372 0.0445745 90.3372 1.54525 90.3372 3.39757Z" fill="#050831"/>
<path d="M120.067 3.39757V22.5448C120.061 29.0758 114.803 34.4016 108.244 34.5205C101.514 34.6327 96.0073 28.9734 96.0073 22.274V3.39757C96.0073 1.54525 97.5156 0.0445745 99.3754 0.0445745C101.235 0.0445745 102.743 1.54525 102.743 3.39757V22.3929C102.71 25.1466 104.777 27.4794 107.526 27.793C109.011 27.935 110.488 27.4463 111.592 26.4475C112.696 25.4487 113.328 24.0339 113.33 22.5481V3.39757C113.33 1.54525 114.838 0.0445745 116.698 0.0445745C118.557 0.0445745 120.066 1.54525 120.066 3.39757H120.067Z" fill="#050831"/>
<path d="M132.462 3.39757V31.1708C132.462 33.0231 130.962 34.5238 129.11 34.5238C127.259 34.5238 125.759 33.0231 125.759 31.1708V3.39757C125.759 1.54525 127.259 0.0445745 129.11 0.0445745C130.962 0.0445745 132.462 1.54525 132.462 3.39757Z" fill="#050831"/>
<path d="M162.215 3.39757V31.1708C162.215 33.0231 160.715 34.5238 158.864 34.5238H157.176C155.91 34.5238 154.751 33.8106 154.182 32.6797L144.858 14.1582V31.1724C144.858 33.0248 143.358 34.5254 141.507 34.5254C139.655 34.5254 138.155 33.0248 138.155 31.1724V3.35299C138.155 1.50068 139.655 0 141.507 0H143.172C144.438 0 145.596 0.713192 146.165 1.84406L155.512 20.4118V3.39757C155.512 1.54525 157.012 0.0445745 158.864 0.0445745C160.715 0.0445745 162.215 1.54525 162.215 3.39757Z" fill="#050831"/>
<path d="M39.8937 0.0478771C38.0427 0.0478771 36.5422 1.54906 36.5422 3.40087C36.5422 5.25268 38.0427 6.75386 39.8937 6.75386H57.2522C59.1033 6.75386 60.6038 5.25268 60.6038 3.40087C60.6038 1.54906 59.1033 0.0478771 57.2522 0.0478771H39.8937Z" fill="#D5E6F7"/>
<path d="M39.8937 13.9337C38.0427 13.9337 36.5422 15.4349 36.5422 17.2867C36.5422 19.1385 38.0427 20.6397 39.8937 20.6397H57.2522C59.1033 20.6397 60.6038 19.1385 60.6038 17.2867C60.6038 15.4349 59.1033 13.9337 57.2522 13.9337H39.8937Z" fill="#D5ADFB"/>
<path d="M39.8937 27.8195C38.0427 27.8195 36.5422 29.3206 36.5422 31.1724C36.5422 33.0243 38.0427 34.5254 39.8937 34.5254H57.2522C59.1033 34.5254 60.6038 33.0243 60.6038 31.1724C60.6038 29.3206 59.1033 27.8195 57.2522 27.8195H39.8937Z" fill="#F90052"/>
<path d="M171.244 0.047879C169.393 0.047879 167.892 1.54906 167.892 3.40086C167.892 5.25267 169.393 6.75387 171.244 6.75387H188.602C190.453 6.75387 191.954 5.25267 191.954 3.40086C191.954 1.54906 190.453 0.047879 188.602 0.047879H171.244Z" fill="#050831"/>
<path d="M171.244 13.9337C169.393 13.9337 167.892 15.4348 167.892 17.2866C167.892 19.1385 169.393 20.6397 171.244 20.6397H188.602C190.453 20.6397 191.954 19.1385 191.954 17.2866C191.954 15.4348 190.453 13.9337 188.602 13.9337H171.244Z" fill="#050831"/>
<path d="M171.243 27.8195C169.392 27.8195 167.892 29.3206 167.892 31.1724C167.892 33.0242 169.392 34.5254 171.243 34.5254H188.602C190.453 34.5254 191.954 33.0242 191.954 31.1724C191.954 29.3206 190.453 27.8195 188.602 27.8195H171.243Z" fill="#050831"/>
<path d="M196.652 0.422632C198.29 0.422632 199.624 1.75657 199.624 3.39592C199.624 5.03527 198.29 6.3692 196.652 6.3692C195.013 6.3692 193.68 5.03527 193.68 3.39592C193.68 1.75657 195.013 0.422632 196.652 0.422632ZM196.652 0.0462254C194.802 0.0462254 193.303 1.54525 193.303 3.39592C193.303 5.24659 194.802 6.74561 196.652 6.74561C198.502 6.74561 200 5.24659 200 3.39592C200 1.54525 198.502 0.0462254 196.652 0.0462254Z" fill="#050831"/>
</svg>
