<svg width="30" height="24" viewBox="0 0 30 24" fill="none" xmlns="http://www.w3.org/2000/svg">
<path d="M29.8085 5.66865C29.8085 3.01156 27.8688 0.874086 25.472 0.874086C22.2255 0.721156 18.9146 0.662109 15.5309 0.662109H14.4761C11.1007 0.662109 7.78387 0.721156 4.53737 0.874676C2.14644 0.874676 0.206742 3.02396 0.206742 5.68105C0.0602392 7.78251 -0.00187797 9.88456 0.0016381 11.9866C-0.00422202 14.0887 0.0621926 16.1927 0.200882 18.2987C0.200882 20.9558 2.14058 23.1109 4.53151 23.1109C7.94209 23.2704 11.4406 23.3412 14.9977 23.3353C18.5606 23.3471 22.0493 23.2723 25.4638 23.1109C27.8606 23.1109 29.8003 20.9558 29.8003 18.2987C29.941 16.1907 30.0054 14.0887 29.9996 11.9807C30.0128 9.87866 29.9492 7.77464 29.8085 5.66865ZM12.1321 17.7791V6.17645L20.6292 11.9748L12.1321 17.7791Z" fill="#133072"/>
</svg>
